<?xml version="1.0" encoding="UTF-8"?>
<svg width="89px" height="90px" viewBox="0 0 89 90" version="1.1" xmlns="http://www.w3.org/2000/svg" xmlns:xlink="http://www.w3.org/1999/xlink">
    <title>Icon / Agency@1x</title>
    <defs>
        <path d="M29.0236,29.0639 L29.0236,28.5699 C29.0236,25.8099 26.7856,23.5719 24.0246,23.5719 L16.0416,23.5719 C13.2816,23.5719 11.0436,25.8099 11.0436,28.5699 L11.0436,29.0639 L29.0236,29.0639 Z M15.0386,15.0789 C15.0386,12.3199 17.2746,10.0839 20.0336,10.0839 C22.7916,10.0839 25.0286,12.3199 25.0286,15.0789 C25.0286,17.8379 22.7916,20.0739 20.0336,20.0739 C17.2746,20.0739 15.0386,17.8379 15.0386,15.0789 Z" id="path-1"></path>
        <filter x="-203.0%" y="-192.3%" width="506.0%" height="484.7%" filterUnits="objectBoundingBox" id="filter-2">
            <feMorphology radius="0.5" operator="dilate" in="SourceAlpha" result="shadowSpreadOuter1"></feMorphology>
            <feOffset dx="0" dy="0" in="shadowSpreadOuter1" result="shadowOffsetOuter1"></feOffset>
            <feGaussianBlur stdDeviation="12" in="shadowOffsetOuter1" result="shadowBlurOuter1"></feGaussianBlur>
            <feComposite in="shadowBlurOuter1" in2="SourceAlpha" operator="out" result="shadowBlurOuter1"></feComposite>
            <feColorMatrix values="0 0 0 0 1   0 0 0 0 1   0 0 0 0 1  0 0 0 0.32 0" type="matrix" in="shadowBlurOuter1"></feColorMatrix>
        </filter>
        <path d="M35.0333,7.9096 C35.0333,7.3006 35.1583,6.7236 35.3573,6.1836 L20.0333,0.5336 L4.7093,6.1836 C4.9083,6.7236 5.0333,7.3006 5.0333,7.9096 C5.0333,10.4856 3.0783,12.5816 0.5743,12.8546 C2.5583,25.6426 10.0193,36.2016 20.0333,41.0636 C30.0473,36.2016 37.5083,25.6426 39.4923,12.8546 C36.9883,12.5816 35.0333,10.4856 35.0333,7.9096 Z" id="path-3"></path>
        <filter x="-94.0%" y="-90.1%" width="288.0%" height="280.1%" filterUnits="objectBoundingBox" id="filter-4">
            <feMorphology radius="0.5" operator="dilate" in="SourceAlpha" result="shadowSpreadOuter1"></feMorphology>
            <feOffset dx="0" dy="0" in="shadowSpreadOuter1" result="shadowOffsetOuter1"></feOffset>
            <feGaussianBlur stdDeviation="12" in="shadowOffsetOuter1" result="shadowBlurOuter1"></feGaussianBlur>
            <feComposite in="shadowBlurOuter1" in2="SourceAlpha" operator="out" result="shadowBlurOuter1"></feComposite>
            <feColorMatrix values="0 0 0 0 1   0 0 0 0 1   0 0 0 0 1  0 0 0 0.32 0" type="matrix" in="shadowBlurOuter1"></feColorMatrix>
        </filter>
    </defs>
    <g id="Marketing" stroke="none" stroke-width="1" fill="none" fill-rule="evenodd" stroke-linecap="round" stroke-linejoin="round">
        <g id="Landingpage" transform="translate(-228.000000, -1853.000000)">
            <g id="Icon-/-Agency" transform="translate(252.000000, 1877.000000)">
                <g id="Stroke-1">
                    <use fill="black" fill-opacity="1" filter="url(#filter-2)" xlink:href="#path-1"></use>
                    <use stroke="#F2F2F9" stroke-width="1" fill-opacity="0.1" fill="#F2F2F9" fill-rule="evenodd" xlink:href="#path-1"></use>
                    <use stroke="#FFFFFF" stroke-width="0.5" xlink:href="#path-1"></use>
                </g>
                <g id="Stroke-3">
                    <use fill="black" fill-opacity="1" filter="url(#filter-4)" xlink:href="#path-3"></use>
                    <use stroke="#F2F2F9" stroke-width="1" fill-opacity="0.1" fill="#F2F2F9" fill-rule="evenodd" xlink:href="#path-3"></use>
                    <use stroke="#FFFFFF" stroke-width="0.5" xlink:href="#path-3"></use>
                </g>
            </g>
        </g>
    </g>
</svg>