<svg width="18" height="22" viewBox="0 0 18 22" fill="none" xmlns="http://www.w3.org/2000/svg">
<path d="M7.076 9.00977C7.676 9.00977 8.162 9.45977 8.151 10.0098C8.151 10.5598 7.677 11.0098 7.076 11.0098C6.486 11.0098 6 10.5598 6 10.0098C6 9.45977 6.475 9.00977 7.076 9.00977ZM10.924 9.00977C11.525 9.00977 12 9.45977 12 10.0098C12 10.5598 11.525 11.0098 10.924 11.0098C10.334 11.0098 9.849 10.5598 9.849 10.0098C9.849 9.45977 10.323 9.00977 10.924 9.00977ZM15.891 0.00976562C17.054 0.00976562 18 0.975766 18 2.17277V21.0098L15.789 19.0148L14.544 17.8388L13.227 16.5888L13.773 18.5318H2.109C0.946 18.5318 0 17.5658 0 16.3688V2.17277C0 0.975766 0.946 0.00976562 2.109 0.00976562H15.89H15.891ZM11.921 13.7228C14.194 13.6498 15.069 12.1268 15.069 12.1268C15.069 8.74577 13.587 6.00477 13.587 6.00477C12.107 4.87177 10.697 4.90277 10.697 4.90277L10.553 5.07077C12.302 5.61677 13.114 6.40477 13.114 6.40477C12.1591 5.86675 11.1066 5.5241 10.018 5.39677C9.32744 5.31877 8.62993 5.32549 7.941 5.41677C7.879 5.41677 7.827 5.42777 7.766 5.43777C7.406 5.46977 6.531 5.60577 5.431 6.09977C5.051 6.27777 4.824 6.40477 4.824 6.40477C4.824 6.40477 5.678 5.57477 7.529 5.02877L7.426 4.90277C7.426 4.90277 6.017 4.87177 4.536 6.00577C4.536 6.00577 3.055 8.74577 3.055 12.1268C3.055 12.1268 3.919 13.6488 6.192 13.7228C6.192 13.7228 6.572 13.2508 6.882 12.8518C5.575 12.4518 5.082 11.6118 5.082 11.6118C5.082 11.6118 5.184 11.6858 5.369 11.7908C5.379 11.8008 5.389 11.8118 5.41 11.8218C5.441 11.8438 5.472 11.8538 5.503 11.8748C5.76 12.0218 6.017 12.1368 6.253 12.2318C6.675 12.3998 7.179 12.5678 7.766 12.6838C8.64532 12.8561 9.54941 12.8595 10.43 12.6938C10.9429 12.6022 11.4433 12.4509 11.921 12.2428C12.281 12.1058 12.682 11.9058 13.104 11.6228C13.104 11.6228 12.59 12.4838 11.242 12.8728C11.551 13.2718 11.922 13.7228 11.922 13.7228H11.921Z" fill="white"/>
</svg>
