<svg width="22" height="18" viewBox="0 0 22 18" fill="none" xmlns="http://www.w3.org/2000/svg">
<path d="M21.1623 2.66569C20.3989 3.00339 19.5893 3.22517 18.7603 3.32369C19.634 2.80113 20.288 1.97871 20.6003 1.00969C19.7803 1.49769 18.8813 1.83969 17.9443 2.02469C17.3149 1.35127 16.4807 0.904655 15.5713 0.754277C14.6618 0.603899 13.7282 0.758183 12.9156 1.19315C12.1029 1.62811 11.4567 2.31938 11.0774 3.15948C10.6981 3.99959 10.607 4.94147 10.8183 5.83869C9.15541 5.75535 7.52863 5.32322 6.04358 4.57036C4.55854 3.8175 3.24842 2.76074 2.1983 1.46869C1.82659 2.10714 1.63125 2.83292 1.6323 3.57169C1.6323 5.02169 2.3703 6.30269 3.4923 7.05269C2.82831 7.03179 2.17893 6.85247 1.5983 6.52969V6.58169C1.5985 7.54739 1.93267 8.48331 2.54414 9.23075C3.15562 9.9782 4.00678 10.4912 4.9533 10.6827C4.33691 10.8497 3.6906 10.8744 3.0633 10.7547C3.33016 11.5859 3.8503 12.3129 4.55089 12.8338C5.25147 13.3547 6.09742 13.6435 6.9703 13.6597C6.10278 14.341 5.10947 14.8447 4.04718 15.1419C2.98488 15.4391 1.87442 15.5239 0.779297 15.3917C2.69099 16.6211 4.91639 17.2738 7.1893 17.2717C14.8823 17.2717 19.0893 10.8987 19.0893 5.37169C19.0893 5.19169 19.0843 5.00969 19.0763 4.83169C19.8952 4.23986 20.6019 3.50671 21.1633 2.66669L21.1623 2.66569Z" fill="white"/>
</svg>
